<svg xmlns="http://www.w3.org/2000/svg" width="820" height="432" viewBox="0 0 820 432" font-family="-apple-system,BlinkMacSystemFont,Segoe UI,Helvetica,Arial,sans-serif">
<text x="0" y="20" font-size="15" font-weight="700" fill="#1f2328">What history adds to what an agent already finds for free</text>
<text x="0" y="40" font-size="12" fill="#57606a">Every prediction scored only against the commits that preceded it</text>
<rect x="0" y="56" width="10" height="10" rx="2" fill="#d0d7de"/><text x="16" y="65" font-size="11.5" fill="#57606a">the hardest rule that needs no history</text>
<rect x="310" y="56" width="10" height="10" rx="2" fill="#0d9488"/><text x="326" y="65" font-size="11.5" fill="#57606a">recovered by Git Synapse from history</text>
<line x1="0" y1="70" x2="820" y2="70" stroke="#d8dee4" stroke-width="1"/>
<text x="0" y="87" font-size="12.5" font-weight="600" fill="#1f2328">163 repositories</text>
<text x="0" y="101" font-size="10" fill="#8c959f">six orgs &#183; 173,034 commits</text>
<rect x="168" y="78" width="306.3" height="18" rx="3" fill="#d0d7de"/>
<rect x="474.3" y="78" width="124.7" height="18" fill="#0d9488"/>
<text x="175" y="91" font-size="10.5" fill="#57606a">53.0%</text>
<text x="479.3" y="91" font-size="10.5" font-weight="700" fill="#ffffff">+21.6</text>
<text x="816" y="92" font-size="14.5" font-weight="700" text-anchor="end" fill="#0d9488">74.6%</text>
<line x1="0" y1="110" x2="820" y2="110" stroke="#d8dee4" stroke-width="1"/>
<text x="0" y="127" font-size="12.5" font-weight="600" fill="#1f2328">laravel/framework</text>
<text x="0" y="141" font-size="10" fill="#8c959f">PHP &#183; 43,984 commits</text>
<rect x="168" y="118" width="201.1" height="18" rx="3" fill="#d0d7de"/>
<rect x="369.1" y="118" width="179.8" height="18" fill="#0d9488"/>
<text x="175" y="131" font-size="10.5" fill="#57606a">34.8%</text>
<text x="374.1" y="131" font-size="10.5" font-weight="700" fill="#ffffff">+31.1</text>
<text x="816" y="132" font-size="14.5" font-weight="700" text-anchor="end" fill="#0d9488">65.9%</text>
<line x1="0" y1="150" x2="820" y2="150" stroke="#d8dee4" stroke-width="1"/>
<text x="0" y="167" font-size="12.5" font-weight="600" fill="#1f2328">tokio</text>
<text x="0" y="181" font-size="10" fill="#8c959f">Rust &#183; 4,449 commits</text>
<rect x="168" y="158" width="248.0" height="18" rx="3" fill="#d0d7de"/>
<rect x="416.0" y="158" width="173.6" height="18" fill="#0d9488"/>
<text x="175" y="171" font-size="10.5" fill="#57606a">42.9%</text>
<text x="421.0" y="171" font-size="10.5" font-weight="700" fill="#ffffff">+30.0</text>
<text x="816" y="172" font-size="14.5" font-weight="700" text-anchor="end" fill="#0d9488">72.9%</text>
<line x1="0" y1="190" x2="820" y2="190" stroke="#d8dee4" stroke-width="1"/>
<text x="0" y="207" font-size="12.5" font-weight="600" fill="#1f2328">flatbuffers</text>
<text x="0" y="221" font-size="10" fill="#8c959f">C++ &#183; 3,147 commits</text>
<rect x="168" y="198" width="266.5" height="18" rx="3" fill="#d0d7de"/>
<rect x="434.5" y="198" width="181.9" height="18" fill="#0d9488"/>
<text x="175" y="211" font-size="10.5" fill="#57606a">46.1%</text>
<text x="439.5" y="211" font-size="10.5" font-weight="700" fill="#ffffff">+31.5</text>
<text x="816" y="212" font-size="14.5" font-weight="700" text-anchor="end" fill="#0d9488">77.6%</text>
<line x1="0" y1="230" x2="820" y2="230" stroke="#d8dee4" stroke-width="1"/>
<text x="0" y="247" font-size="12.5" font-weight="600" fill="#1f2328">pytype</text>
<text x="0" y="261" font-size="10" fill="#8c959f">Python &#183; 6,184 commits</text>
<rect x="168" y="238" width="269.9" height="18" rx="3" fill="#d0d7de"/>
<rect x="437.9" y="238" width="162.0" height="18" fill="#0d9488"/>
<text x="175" y="251" font-size="10.5" fill="#57606a">46.7%</text>
<text x="442.9" y="251" font-size="10.5" font-weight="700" fill="#ffffff">+28.0</text>
<text x="816" y="252" font-size="14.5" font-weight="700" text-anchor="end" fill="#0d9488">74.7%</text>
<line x1="0" y1="270" x2="820" y2="270" stroke="#d8dee4" stroke-width="1"/>
<text x="0" y="287" font-size="12.5" font-weight="600" fill="#1f2328">vuejs/core</text>
<text x="0" y="301" font-size="10" fill="#8c959f">TypeScript &#183; 7,135 commits</text>
<rect x="168" y="278" width="329.5" height="18" rx="3" fill="#d0d7de"/>
<rect x="497.5" y="278" width="132.2" height="18" fill="#0d9488"/>
<text x="175" y="291" font-size="10.5" fill="#57606a">57.0%</text>
<text x="502.5" y="291" font-size="10.5" font-weight="700" fill="#ffffff">+22.9</text>
<text x="816" y="292" font-size="14.5" font-weight="700" text-anchor="end" fill="#0d9488">79.9%</text>
<line x1="0" y1="310" x2="820" y2="310" stroke="#d8dee4" stroke-width="1"/>
<text x="0" y="327" font-size="12.5" font-weight="600" fill="#1f2328">prometheus</text>
<text x="0" y="341" font-size="10" fill="#8c959f">Go &#183; 13,756 commits</text>
<rect x="168" y="318" width="305.2" height="18" rx="3" fill="#d0d7de"/>
<rect x="473.2" y="318" width="142.7" height="18" fill="#0d9488"/>
<text x="175" y="331" font-size="10.5" fill="#57606a">52.8%</text>
<text x="478.2" y="331" font-size="10.5" font-weight="700" fill="#ffffff">+24.7</text>
<text x="816" y="332" font-size="14.5" font-weight="700" text-anchor="end" fill="#0d9488">77.5%</text>
<line x1="0" y1="350" x2="820" y2="350" stroke="#d8dee4" stroke-width="1"/>
<text x="0" y="367" font-size="12.5" font-weight="600" fill="#1f2328">guava</text>
<text x="0" y="381" font-size="10" fill="#8c959f">Java &#183; 7,954 commits</text>
<rect x="168" y="358" width="446.8" height="18" rx="3" fill="#d0d7de"/>
<rect x="614.8" y="358" width="45.4" height="18" fill="#0d9488"/>
<text x="175" y="371" font-size="10.5" fill="#57606a">77.3%</text>
<text x="619.8" y="371" font-size="10.5" font-weight="700" fill="#ffffff">+7.9</text>
<text x="816" y="372" font-size="14.5" font-weight="700" text-anchor="end" fill="#0d9488">85.2%</text>
<text x="0" y="422" font-size="10" fill="#8c959f">Share of predictions where at least one file that really changed appeared in the top 5. On guava the Apprentice alone beats every measure &#8212;</text>
<text x="0" y="432" font-size="10" fill="#8c959f">a well-organised codebase is one history has least to add to.</text>
</svg>