<svg xmlns="http://www.w3.org/2000/svg" width="820" height="424" viewBox="0 0 820 424" font-family="-apple-system,BlinkMacSystemFont,Segoe UI,Helvetica,Arial,sans-serif">
<text x="0" y="20" font-size="15" font-weight="700" fill="#1f2328">Would it have named the right files?</text>
<text x="0" y="40" font-size="12" fill="#57606a">168,620 predictions across 94,872 commits — each scored only against earlier history</text>
<rect x="0" y="54" width="10" height="10" rx="2" fill="#d0d7de"/><text x="16" y="63" font-size="11.5" fill="#57606a">guessing the busiest files</text>
<rect x="196" y="54" width="10" height="10" rx="2" fill="#0d9488"/><text x="212" y="63" font-size="11.5" fill="#57606a">Git Synapse — P(B|A)</text>
<line x1="0" y1="65" x2="820" y2="65" stroke="#d8dee4" stroke-width="1"/>
<text x="0" y="87" font-size="13" font-weight="600" fill="#1f2328">scikit-learn</text>
<text x="0" y="102" font-size="10.5" fill="#8c959f">30,873 commits</text>
<rect x="132" y="74" width="84.1" height="15" rx="3" fill="#d0d7de"/>
<text x="223.1" y="86" font-size="11" fill="#57606a">14.2%</text>
<rect x="132" y="94" width="326.2" height="15" rx="3" fill="#0d9488"/>
<text x="465.2" y="106" font-size="11" font-weight="700" fill="#0d9488">55.1%</text>
<text x="814" y="96" font-size="17" font-weight="700" text-anchor="end" fill="#0d9488">3.88x</text>
<line x1="0" y1="119" x2="820" y2="119" stroke="#d8dee4" stroke-width="1"/>
<text x="0" y="141" font-size="13" font-weight="600" fill="#1f2328">django</text>
<text x="0" y="156" font-size="10.5" fill="#8c959f">33,992 commits</text>
<rect x="132" y="128" width="87.6" height="15" rx="3" fill="#d0d7de"/>
<text x="226.6" y="140" font-size="11" fill="#57606a">14.8%</text>
<rect x="132" y="148" width="294.8" height="15" rx="3" fill="#0d9488"/>
<text x="433.8" y="160" font-size="11" font-weight="700" fill="#0d9488">49.8%</text>
<text x="814" y="150" font-size="17" font-weight="700" text-anchor="end" fill="#0d9488">3.36x</text>
<line x1="0" y1="173" x2="820" y2="173" stroke="#d8dee4" stroke-width="1"/>
<text x="0" y="195" font-size="13" font-weight="600" fill="#1f2328">requests</text>
<text x="0" y="210" font-size="10.5" fill="#8c959f">4,856 commits</text>
<rect x="132" y="182" width="241.5" height="15" rx="3" fill="#d0d7de"/>
<text x="380.5" y="194" font-size="11" fill="#57606a">40.8%</text>
<rect x="132" y="202" width="382.4" height="15" rx="3" fill="#0d9488"/>
<text x="521.4" y="214" font-size="11" font-weight="700" fill="#0d9488">64.6%</text>
<text x="814" y="204" font-size="17" font-weight="700" text-anchor="end" fill="#0d9488">1.58x</text>
<line x1="0" y1="227" x2="820" y2="227" stroke="#d8dee4" stroke-width="1"/>
<text x="0" y="249" font-size="13" font-weight="600" fill="#1f2328">pytest</text>
<text x="0" y="264" font-size="10.5" fill="#8c959f">13,071 commits</text>
<rect x="132" y="236" width="205.4" height="15" rx="3" fill="#d0d7de"/>
<text x="344.4" y="248" font-size="11" fill="#57606a">34.7%</text>
<rect x="132" y="256" width="316.1" height="15" rx="3" fill="#0d9488"/>
<text x="455.1" y="268" font-size="11" font-weight="700" fill="#0d9488">53.4%</text>
<text x="814" y="258" font-size="17" font-weight="700" text-anchor="end" fill="#0d9488">1.54x</text>
<line x1="0" y1="281" x2="820" y2="281" stroke="#d8dee4" stroke-width="1"/>
<text x="0" y="303" font-size="13" font-weight="600" fill="#1f2328">fastapi</text>
<text x="0" y="318" font-size="10.5" fill="#8c959f">7,594 commits</text>
<rect x="132" y="290" width="167.5" height="15" rx="3" fill="#d0d7de"/>
<text x="306.5" y="302" font-size="11" fill="#57606a">28.3%</text>
<rect x="132" y="310" width="243.9" height="15" rx="3" fill="#0d9488"/>
<text x="382.9" y="322" font-size="11" font-weight="700" fill="#0d9488">41.2%</text>
<text x="814" y="312" font-size="17" font-weight="700" text-anchor="end" fill="#0d9488">1.45x</text>
<line x1="0" y1="335" x2="820" y2="335" stroke="#d8dee4" stroke-width="1"/>
<text x="0" y="357" font-size="13" font-weight="600" fill="#1f2328">flask</text>
<text x="0" y="372" font-size="10.5" fill="#8c959f">3,821 commits</text>
<rect x="132" y="344" width="287.7" height="15" rx="3" fill="#d0d7de"/>
<text x="426.7" y="356" font-size="11" fill="#57606a">48.6%</text>
<rect x="132" y="364" width="358.2" height="15" rx="3" fill="#0d9488"/>
<text x="497.2" y="376" font-size="11" font-weight="700" fill="#0d9488">60.5%</text>
<text x="814" y="366" font-size="17" font-weight="700" text-anchor="end" fill="#0d9488">1.24x</text>
<text x="0" y="418" font-size="10.5" fill="#8c959f">Share of predictions where at least one correct file appeared in the top 5. No confidence intervals overlap.</text>
</svg>